# xmcd
#
# Track frame offsets:
#	150
#	20610
#	41720
#	64512
#	93740
#	113702
#	132210
#	157977
#	180830
#	208080
#
# Disc length: 3513 seconds
#
# Revision: 3
# Processed by: cddbd v1.5.2PL0 Copyright (c) Steve Scherf et al.
# Submitted via: audiograbber 1.83.01
#
DISCID=7f0db70a
DTITLE=Mike Oldfield - Voyager
DYEAR=1996
DGENRE=New Age
TTITLE0=The Song Of The Sun
TTITLE1=Celtic Rain
TTITLE2=The Hero
TTITLE3=Women Of Ireland
TTITLE4=The Voyager
TTITLE5=She Moves Through The Fair
TTITLE6=Dark Island
TTITLE7=Wild Goose Flaps Its Wings
TTITLE8=Flowers Of The Forest
TTITLE9=Mont St. Michel
EXTD=YEAR: 1996
EXTT0=
EXTT1=
EXTT2=
EXTT3=
EXTT4=
EXTT5=
EXTT6=
EXTT7=
EXTT8=
EXTT9=
PLAYORDER=
